<?xml version="1.0" encoding="UTF-8" standalone="no"?>
<!-- Created with Inkscape (http://www.inkscape.org/) -->

<svg
   xmlns:dc="http://purl.org/dc/elements/1.1/"
   xmlns:cc="http://creativecommons.org/ns#"
   xmlns:rdf="http://www.w3.org/1999/02/22-rdf-syntax-ns#"
   xmlns:svg="http://www.w3.org/2000/svg"
   xmlns="http://www.w3.org/2000/svg"
   xmlns:sodipodi="http://sodipodi.sourceforge.net/DTD/sodipodi-0.dtd"
   xmlns:inkscape="http://www.inkscape.org/namespaces/inkscape"
   width="64"
   height="32"
   viewBox="0 0 64.000001 32.000001"
   id="svg5047"
   version="1.1"
   inkscape:version="0.91 r13725"
   sodipodi:docname="Gras.svg">
  <defs
     id="defs5049" />
  <sodipodi:namedview
     id="base"
     pagecolor="#ffffff"
     bordercolor="#666666"
     borderopacity="1.0"
     inkscape:pageopacity="0.0"
     inkscape:pageshadow="2"
     inkscape:zoom="8"
     inkscape:cx="28.119046"
     inkscape:cy="21.982217"
     inkscape:document-units="px"
     inkscape:current-layer="layer2"
     showgrid="true"
     units="px"
     inkscape:window-width="1366"
     inkscape:window-height="719"
     inkscape:window-x="0"
     inkscape:window-y="1"
     inkscape:window-maximized="1">
    <inkscape:grid
       type="axonomgrid"
       id="grid5595"
       units="mm"
       empspacing="5"
       gridanglex="30"
       gridanglez="30" />
  </sodipodi:namedview>
  <metadata
     id="metadata5052">
    <rdf:RDF>
      <cc:Work
         rdf:about="">
        <dc:format>image/svg+xml</dc:format>
        <dc:type
           rdf:resource="http://purl.org/dc/dcmitype/StillImage" />
        <dc:title></dc:title>
      </cc:Work>
    </rdf:RDF>
  </metadata>
  <g
     inkscape:label="Ebene 1"
     inkscape:groupmode="layer"
     id="layer1"
     transform="translate(0,-1020.3622)">
    <rect
       style="fill:#005500;fill-opacity:1;fill-rule:nonzero;stroke:none;stroke-width:0.80000001;stroke-miterlimit:4;stroke-dasharray:none;stroke-opacity:1"
       id="rect5597"
       width="35.777088"
       height="35.777088"
       x="-1158.6881"
       y="1158.6881"
       ry="0"
       transform="matrix(0.89442719,-0.4472136,0.89442719,0.4472136,0,0)" />
  </g>
  <g
     inkscape:groupmode="layer"
     id="layer2"
     inkscape:label="Ebene 2"
     style="opacity:0.374">
    <path
       style="fill:#008000;fill-opacity:1;fill-rule:nonzero;stroke:none;stroke-width:0.80000001;stroke-miterlimit:4;stroke-dasharray:none;stroke-opacity:1"
       id="path5621"
       d="m 12.759474,16.779914 c 0.177814,0.158798 0.294526,0.38287 0.440291,0.573436 0,0 -5.3099628,0.386969 -5.3099628,0.386969 l 0,0 C 7.708625,17.566914 7.618187,17.484961 7.3601427,17.499991 c 0,0 5.3993313,-0.720077 5.3993313,-0.720077 z"
       inkscape:connector-curvature="0" />
    <path
       style="fill:#008000;fill-opacity:1;fill-rule:nonzero;stroke:none;stroke-width:0.80000001;stroke-miterlimit:4;stroke-dasharray:none;stroke-opacity:1"
       id="path5623"
       d="m 9.5034968,16.272638 c 0.060776,-0.01419 0.1240949,-0.02012 0.1823277,-0.04257 0.16696,-0.06437 0.3177155,-0.165508 0.4823795,-0.235541 0.287625,-0.122328 0.578366,-0.195387 0.883168,-0.259104 5.575831,0.04438 3.86175,-0.810168 5.742869,0.185526 0,0 -5.228851,0.651742 -5.228851,0.651742 l 0,0 c -1.8628431,-0.253745 -0.321686,-0.0324 4.670574,-0.05613 -0.09759,-0.0062 -0.195135,-0.02384 -0.292784,-0.01857 -0.253149,0.01365 -0.72798,0.129127 -0.933373,0.289858 -0.04529,0.03544 -0.07586,0.08647 -0.113782,0.129701 0,0 -5.3925282,-0.644916 -5.3925282,-0.644916 z"
       inkscape:connector-curvature="0" />
    <path
       style="fill:#008000;fill-opacity:1;fill-rule:nonzero;stroke:none;stroke-width:0.80000001;stroke-miterlimit:4;stroke-dasharray:none;stroke-opacity:1"
       id="path5625"
       d="m 18.634265,18.831228 c 0.248086,0.32996 0.601651,0.568701 0.911782,0.83817 0,0 -5.246154,0.462762 -5.246154,0.462762 l 0,0 c -0.366811,-0.288757 -0.727916,-0.585006 -1.094445,-0.873675 0,0 5.428817,-0.427257 5.428817,-0.427257 z"
       inkscape:connector-curvature="0" />
    <path
       style="fill:#008000;fill-opacity:1;fill-rule:nonzero;stroke:none;stroke-width:0.80000001;stroke-miterlimit:4;stroke-dasharray:none;stroke-opacity:1"
       id="path5627"
       d="m 34.412505,6.355638 c 0.05555,0.021659 0.112214,0.040653 0.166651,0.064976 0.440909,0.1970027 0.0804,0.0609 0.572728,0.2659746 0.170956,0.07121 0.455124,0.163885 0.619516,0.2573647 0.09228,0.052475 0.173476,0.1224117 0.260213,0.1836175 0.07739,0.070329 0.154785,0.1406585 0.232177,0.2109877 0,0 -5.232138,0.473368 -5.232138,0.473368 l 0,0 C 30.958658,7.7634731 30.885664,7.7150198 30.81267,7.6665664 30.24448,7.3871441 29.656128,7.1578579 29.046825,6.9840751 c 0,0 5.36568,-0.6284371 5.36568,-0.6284371 z"
       inkscape:connector-curvature="0" />
    <path
       style="fill:#008000;fill-opacity:1;fill-rule:nonzero;stroke:none;stroke-width:0.80000001;stroke-miterlimit:4;stroke-dasharray:none;stroke-opacity:1"
       id="path5629"
       d="m 40.889477,13.229228 c 0.240266,0.137401 0.09134,0.04953 0.441969,0.271612 0,0 -5.091528,0.587818 -5.091528,0.587818 l 0,0 c -0.580898,-0.193133 -0.328094,-0.105779 -0.759778,-0.258077 0,0 5.409337,-0.601353 5.409337,-0.601353 z"
       inkscape:connector-curvature="0" />
    <path
       style="fill:#008000;fill-opacity:1;fill-rule:nonzero;stroke:none;stroke-width:0.80000001;stroke-miterlimit:4;stroke-dasharray:none;stroke-opacity:1"
       id="path5631"
       d="M 31.859821,27.778109 C 31.60431,27.414626 31.302827,27.087749 30.998122,26.76552 30.891271,26.611115 30.728694,26.53054 30.583345,26.422921 30.403052,26.28943 30.387179,26.26841 30.170543,26.198784 c -0.274074,-0.0738 -0.556687,-0.044 -0.836941,-0.04006 -0.333211,0.02936 -0.645377,-0.05879 -0.944602,-0.199803 0,0 5.305015,-0.674555 5.305015,-0.674555 l 0,0 c 0.315188,0.04992 0.627376,0.04612 0.945067,0.05566 0.310968,0.0289 0.604314,0.09091 0.862938,0.277887 0.298382,0.2191 0.573144,0.466395 0.796935,0.763056 0.292388,0.354758 0.588776,0.708505 0.971607,0.971306 0,0 -5.410741,0.425835 -5.410741,0.425835 z"
       inkscape:connector-curvature="0" />
    <path
       style="fill:#008000;fill-opacity:1;fill-rule:nonzero;stroke:none;stroke-width:0.80000001;stroke-miterlimit:4;stroke-dasharray:none;stroke-opacity:1"
       id="path5633"
       d="m 39.359723,22.800181 c -1.988879,-0.03296 -3.979272,-0.02045 -5.967642,-0.04456 -0.113625,-0.0014 -0.224299,-0.03701 -0.337092,-0.05081 -0.367531,-0.01472 -0.721228,-0.108684 -1.087653,-0.140407 -0.320611,-0.02463 -0.642303,-0.02406 -0.963615,-0.02222 1.729645,-0.0029 3.45929,-0.0058 5.188935,-0.0087 -0.166983,-0.01074 -0.08366,-0.01696 -0.24989,0.01989 0,0 -5.342462,-0.674871 -5.342462,-0.674871 l 0,0 c 2.011549,-0.855569 -2.38606,-0.970163 5.720406,-0.169028 0.311394,0.01284 0.622398,0.03629 0.930661,0.08375 0.365656,0.05737 0.730563,0.103008 1.098924,0.13871 0.05841,0.0071 0.116665,0.01573 0.175239,0.02139 0.05356,0.0052 0.214873,0.01108 0.161059,0.01111 -8.807093,0.0052 -6.532732,0.02273 -4.695838,-0.01466 0,0 5.368968,0.850362 5.368968,0.850362 z"
       inkscape:connector-curvature="0" />
    <path
       style="fill:#008000;fill-opacity:1;fill-rule:nonzero;stroke:none;stroke-width:0.80000001;stroke-miterlimit:4;stroke-dasharray:none;stroke-opacity:1"
       id="path5635"
       d="m 29.438502,24.185937 c -0.06027,0.07967 -0.227216,0.383577 -0.178608,0.480629 0.0056,0.0111 0.02456,-0.0037 0.03685,-0.0055 1.010446,-1.394185 6.957972,-0.06046 -4.859146,-0.232559 -0.109744,-0.0016 0.219071,-0.01801 0.327196,-0.03686 0.295795,-0.05156 0.400073,-0.09915 0.684308,-0.195336 0.46077,-0.172343 0.87421,-0.44204 1.335117,-0.612815 0.05753,-0.01614 0.115054,-0.03229 0.172581,-0.04843 0,0 5.295384,0.747588 5.295384,0.747588 l 0,0 c -0.05906,0.0037 -0.118117,0.0073 -0.177175,0.01099 -0.527091,0.05913 -0.999761,0.295573 -1.472254,0.525217 -2.327003,1.013444 -1.739827,0.494578 -6.408331,0.397304 -0.08,-0.0017 -0.1436,-0.07957 -0.193407,-0.142199 -0.05481,-0.06892 -0.07367,-0.159965 -0.110508,-0.239947 -0.01,-0.06899 -0.02666,-0.137334 -0.02988,-0.206962 -0.01094,-0.236667 0.113102,-0.461345 0.141063,-0.693399 0,0 5.436813,0.252257 5.436813,0.252257 z"
       inkscape:connector-curvature="0" />
    <path
       style="fill:#008000;fill-opacity:1;fill-rule:nonzero;stroke:none;stroke-width:0.80000001;stroke-miterlimit:4;stroke-dasharray:none;stroke-opacity:1"
       id="path5637"
       d="m 28.634245,19.07482 c 0.283885,0.0057 0.56784,0.0063 0.851771,0.0076 0.364841,0.0016 0.729679,-0.0017 1.094518,-0.0011 1.942035,-0.0055 4.655662,-0.01059 -4.391267,0.0096 0.380646,-0.02514 0.756838,-0.06461 1.117672,-0.19252 0.314626,-0.08644 0.592642,-0.261185 0.895282,-0.374281 0.222051,-0.118698 0.451402,-0.213893 0.694947,-0.277049 1.857316,-0.389425 0.234303,-0.05503 5.533558,0.0026 0.06236,6.79e-4 0.141309,0.09101 0.182672,0.116738 0.06788,0.04222 0.124974,0.04997 0.200867,0.06871 0.228874,0.153441 0.495314,0.138591 0.757808,0.146067 0.370615,0.0058 0.741342,0.0067 1.111991,0.0043 2.150335,-0.0083 -6.586683,-0.213832 -4.950114,-0.0034 1.801729,0.231631 3.633106,0.01844 5.449511,0.04191 0.158637,0.0021 0.294268,0.103212 0.415082,0.190867 0.170985,0.118561 0.255851,0.316052 0.39019,0.466707 0.0542,0.06078 0.138659,0.112086 0.204545,0.157005 0.25759,0.112538 0.536744,0.131959 0.81366,0.145422 0,0 -5.284334,0.754841 -5.284334,0.754841 l 0,0 c -0.3233,-0.08122 -0.62879,-0.197052 -0.874193,-0.432871 -0.185164,-0.180332 -0.328435,-0.414251 -0.597734,-0.468107 -0.06774,-0.0066 -0.749983,-0.02938 -0.393341,-0.02921 10.563058,0.0048 3.097935,0.02735 -0.439535,0.0095 -0.382267,-0.0047 -0.76583,-0.0026 -1.145542,-0.05419 -0.288232,-0.05051 -0.545484,-0.165417 -0.81956,-0.259609 -0.03851,-0.01656 -0.168147,-0.07577 -0.213829,-0.08245 -0.05916,-0.0087 -0.238862,0.01035 -0.179071,0.01038 5.556278,0.0031 7.041878,0.03034 5.193079,-0.0028 -0.243175,-0.0039 -0.490597,0.0088 -0.715442,0.11076 -0.336078,0.173176 0.04583,-0.01 -0.291463,0.111801 -0.223343,0.08063 -0.40482,0.259004 -0.648281,0.292634 -0.25546,0.09881 -0.501414,0.234365 -0.773026,0.286271 -0.05606,0.01071 -0.113799,0.0097 -0.170256,0.01806 -0.05227,0.0077 -0.103746,0.02007 -0.15562,0.03011 -2.067975,0.01568 -4.13682,0.04936 -6.205221,0.03954 -0.36015,5.77e-4 -0.720299,-0.0027 -1.080452,-0.0011 -0.315954,0.0014 -0.631921,0.0023 -0.947841,0.0076 0,0 5.368969,-0.850361 5.368969,-0.850361 z"
       inkscape:connector-curvature="0" />
    <path
       style="fill:#008000;fill-opacity:1;fill-rule:nonzero;stroke:none;stroke-width:0.80000001;stroke-miterlimit:4;stroke-dasharray:none;stroke-opacity:1"
       id="path5639"
       d="m 44.342947,21.074761 c -0.08663,0.396229 -0.07773,0.808414 -0.04849,1.210918 0.01945,0.15348 0.06034,0.140683 0.190594,0.171108 0,0 -5.363442,0.413517 -5.363442,0.413517 l 0,0 c -0.104396,-0.184857 -0.197566,-0.363656 -0.166074,-0.584625 0.02924,-0.402504 0.03814,-0.814689 -0.04849,-1.210918 0,0 5.435894,0 5.435894,0 z"
       inkscape:connector-curvature="0" />
    <path
       style="fill:#008000;fill-opacity:1;fill-rule:nonzero;stroke:none;stroke-width:0.80000001;stroke-miterlimit:4;stroke-dasharray:none;stroke-opacity:1"
       id="path5641"
       d="m 41.891485,24.767928 c 1.795152,0.209712 0.358395,0.03788 -5.006931,-0.01574 -0.08042,-8.04e-4 0.162285,-0.0013 0.240385,-0.02051 0.09153,-0.02247 0.175503,-0.06877 0.263254,-0.10315 0,0 5.222453,0.531199 5.222453,0.531199 l 0,0 c -0.01371,0.01212 -0.392045,0.359888 -0.447055,0.361575 -4.837496,0.148386 -3.714181,0.341334 -5.655555,-0.0093 0,0 5.383449,-0.744048 5.383449,-0.744048 z"
       inkscape:connector-curvature="0" />
    <path
       style="fill:#008000;fill-opacity:1;fill-rule:nonzero;stroke:none;stroke-width:0.80000001;stroke-miterlimit:4;stroke-dasharray:none;stroke-opacity:1"
       id="path5643"
       d="m 41.151365,17.882552 c 0.469107,-0.138971 0.946733,-0.233777 1.430234,-0.305216 0,0 5.169327,0.754774 5.169327,0.754774 l 0,0 c -0.408915,0.03844 -0.841959,0.06329 -1.222866,0.22553 0,0 -5.376695,-0.675088 -5.376695,-0.675088 z"
       inkscape:connector-curvature="0" />
    <path
       style="fill:#008000;fill-opacity:1;fill-rule:nonzero;stroke:none;stroke-width:0.80000001;stroke-miterlimit:4;stroke-dasharray:none;stroke-opacity:1"
       id="path5645"
       d="m 51.009245,18.82482 c 1.815722,0.04101 4.098072,0.06365 -4.565809,0.01478 -0.08903,-5.03e-4 0.178576,-0.01168 0.265067,-0.03279 0.102964,-0.02513 0.20005,-0.07008 0.300075,-0.105121 0.115277,-0.05869 0.230555,-0.117376 0.345832,-0.176064 0,0 5.149778,0.534581 5.149778,0.534581 l 0,0 c -0.100269,0.06947 -0.200538,0.138949 -0.300807,0.208423 -0.03414,0.02467 -0.435565,0.32926 -0.511191,0.331971 -2.019788,0.0724 -4.034601,0.03424 -6.051914,0.07458 0,0 5.368969,-0.850361 5.368969,-0.850361 z"
       inkscape:connector-curvature="0" />
    <path
       style="fill:#008000;fill-opacity:1;fill-rule:nonzero;stroke:none;stroke-width:0.80000001;stroke-miterlimit:4;stroke-dasharray:none;stroke-opacity:1"
       id="path5647"
       d="m 56.259245,16.69982 c 1.806632,0.06522 0.620005,0.021 -5.019807,0.01426 -0.08755,-1.04e-4 0.174798,-0.01026 0.262147,-0.01617 0.402909,-0.02723 0.804832,-0.06705 1.207319,-0.09987 0.466696,-0.02835 0.931644,-0.06468 1.390102,-0.157962 0,0 5.216631,0.691906 5.216631,0.691906 l 0,0 c -0.50205,0.150562 -1.017059,0.213242 -1.541522,0.22557 -0.263078,0.02204 -0.501425,0.03763 -0.761538,0.07482 -0.110403,0.01579 -0.35908,0.07219 -0.483775,0.07362 -1.826835,0.02098 -3.653818,0.02595 -5.480717,0.04026 -0.05262,4.12e-4 -0.105206,0.0026 -0.157809,0.0039 0,0 5.368969,-0.850361 5.368969,-0.850361 z"
       inkscape:connector-curvature="0" />
    <path
       style="fill:#008000;fill-opacity:1;fill-rule:nonzero;stroke:none;stroke-width:0.80000001;stroke-miterlimit:4;stroke-dasharray:none;stroke-opacity:1"
       id="path5649"
       d="m 54.984723,15.925181 c -2.359958,-0.08393 -4.754515,0.296241 -7.075269,-0.187176 -1.12362,-0.273043 -2.227668,-0.616965 -3.333175,-0.954266 0,0 5.009781,-0.634857 5.009781,-0.634857 l 0,0 c 1.100542,0.371907 2.218669,0.700974 3.371001,0.868908 0.161077,0.01704 0.321753,0.03843 0.48323,0.05112 0.143674,0.01129 0.575963,0.02011 0.431848,0.02079 -8.317241,0.03914 -6.017813,0.04042 -4.256384,-0.01488 0,0 5.368968,0.850361 5.368968,0.850361 z"
       inkscape:connector-curvature="0" />
    <path
       style="fill:#008000;fill-opacity:1;fill-rule:nonzero;stroke:none;stroke-width:0.80000001;stroke-miterlimit:4;stroke-dasharray:none;stroke-opacity:1"
       id="path5651"
       d="m 18.84323,21.995204 c -0.556439,-0.289897 -1.127524,-0.552015 -1.674744,-0.859085 -0.467788,-0.200381 -0.877626,-0.470792 -1.234653,-0.831511 0,0 5.295156,-0.429401 5.295156,-0.429401 l 0,0 c 0.328019,0.289787 0.710285,0.492669 1.094141,0.699693 0.591308,0.293154 1.201999,0.61966 1.87431,0.649992 0,0 -5.35421,0.770312 -5.35421,0.770312 z"
       inkscape:connector-curvature="0" />
    <path
       style="fill:#008000;fill-opacity:1;fill-rule:nonzero;stroke:none;stroke-width:0.80000001;stroke-miterlimit:4;stroke-dasharray:none;stroke-opacity:1"
       id="path5653"
       d="m 11.733514,17.857072 c -0.03824,-0.0031 -0.07953,0.006 -0.114735,-0.0093 -0.06551,-0.02842 -0.116259,-0.08353 -0.17878,-0.118038 -0.07413,-0.04091 -0.153258,-0.07201 -0.230074,-0.107609 -0.352258,-0.163255 -0.708458,-0.298576 -1.073998,-0.42942 -0.5755703,-0.169838 -0.2897181,-0.07875 -0.8575539,-0.27328 0,0 5.0774149,-0.636893 5.0774149,-0.636893 l 0,0 c 0.564109,0.184266 0.280858,0.09054 0.849728,0.281239 0.288363,0.09871 0.575528,0.200905 0.864008,0.299276 0.06912,0.02357 0.544003,0.183443 0.651053,0.204253 0.13056,0.02538 0.268857,-0.0054 0.396387,0.0457 0,0 -5.38345,0.744048 -5.38345,0.744048 z"
       inkscape:connector-curvature="0" />
    <path
       style="fill:#008000;fill-opacity:1;fill-rule:nonzero;stroke:none;stroke-width:0.80000001;stroke-miterlimit:4;stroke-dasharray:none;stroke-opacity:1"
       id="path5655"
       d="m 9.6921556,16.048175 c -1.9873975,-0.05892 -3.985538,0.146717 -5.963366,-0.06691 0,0 5.2263832,-0.78372 5.2263832,-0.78372 l 0,0 c 2.3203652,0.134282 -6.7228363,0.06843 -4.6066586,0.0043 0,0 5.3436414,0.84635 5.3436414,0.84635 z"
       inkscape:connector-curvature="0" />
    <path
       style="fill:#008000;fill-opacity:1;fill-rule:nonzero;stroke:none;stroke-width:0.80000001;stroke-miterlimit:4;stroke-dasharray:none;stroke-opacity:1"
       id="path5657"
       d="m 9.4801397,14.419419 c 0.7923863,-0.302537 1.6318033,-0.479013 2.4615533,-0.647254 2.63446,-0.532374 4.674469,-0.38467 7.637702,-0.282495 0.164404,0.0057 0.30903,0.112887 0.463546,0.16933 0.477887,0.183102 0.9518,0.376152 1.42515,0.570582 0,0 -5.046567,0.598576 -5.046567,0.598576 l 0,0 c -0.463162,-0.190763 -0.927005,-0.383325 -1.415535,-0.501673 -1.988497,-0.311428 -0.713392,-0.08507 4.11211,-0.108363 0.166454,-8.03e-4 -0.333073,0.0025 -0.499198,0.01301 -0.578354,0.03654 -1.153197,0.127942 -1.724119,0.222795 -0.682571,0.142723 -1.361557,0.290911 -2.005305,0.566841 0,0 -5.4093373,-0.601353 -5.4093373,-0.601353 z"
       inkscape:connector-curvature="0" />
    <path
       style="fill:#008000;fill-opacity:1;fill-rule:nonzero;stroke:none;stroke-width:0.80000001;stroke-miterlimit:4;stroke-dasharray:none;stroke-opacity:1"
       id="path5659"
       d="m 20.816392,13.071939 c 0.207198,-0.324559 0.214731,-0.721838 0.242909,-1.093966 0.02205,-0.352947 -0.0027,-0.7076 0.03099,-1.059392 0.05784,-0.292927 0.131048,-0.598864 0.293964,-0.854559 0.05431,-0.085235 0.122947,-0.1604394 0.18442,-0.240659 0,0 5.275837,0.400796 5.275837,0.400796 l 0,0 c -0.05024,0.03773 -0.107384,0.06771 -0.150717,0.113205 -0.155531,0.163307 -0.205573,0.418826 -0.25087,0.629857 -0.02984,0.351404 -0.01495,0.705119 -0.05848,1.055723 -0.03897,0.419284 -0.109211,0.835355 -0.14103,1.255596 0,0 -5.427024,-0.206601 -5.427024,-0.206601 z"
       inkscape:connector-curvature="0" />
    <path
       style="fill:#008000;fill-opacity:1;fill-rule:nonzero;stroke:none;stroke-width:0.80000001;stroke-miterlimit:4;stroke-dasharray:none;stroke-opacity:1"
       id="path5661"
       d="m 24.936498,7.9390628 c 0.06331,-0.078839 0.110617,-0.1739598 0.135041,-0.2725132 0.01499,-0.06048 -0.0266,-0.1801175 0.03562,-0.1835031 5.379827,-0.2927447 4.213012,-1.4179352 5.620148,0.018423 0.668511,0.4289967 1.417952,0.7087696 2.169052,0.9551753 0,0 -5.097816,0.6259122 -5.097816,0.6259122 l 0,0 C 27.003941,8.7626776 26.22088,8.4118477 25.412824,8.126976 c -2.046586,0.0058 2.27577,-0.00491 5.122262,-0.1455757 0.04206,-0.00208 -0.01385,-0.1069691 -0.05545,-0.1135211 -0.03042,-0.00479 -0.102585,0.2984652 -0.10633,0.3234409 0,0 -5.436812,-0.2522573 -5.436812,-0.2522573 z"
       inkscape:connector-curvature="0" />
    <path
       style="fill:#008000;fill-opacity:1;fill-rule:nonzero;stroke:none;stroke-width:0.80000001;stroke-miterlimit:4;stroke-dasharray:none;stroke-opacity:1"
       id="path5663"
       d="m 41.353975,12.667554 c -0.303825,-0.0766 -0.592491,-0.196654 -0.889454,-0.294665 -0.308703,-0.128345 -0.570043,-0.340366 -0.860734,-0.498821 -0.168148,-0.06207 -0.08549,-0.03307 -0.247846,-0.08735 0,0 5.360004,-0.611851 5.360004,-0.611851 l 0,0 c 0.14668,0.08978 0.06989,0.04109 0.229812,0.146974 0.25551,0.16792 0.536362,0.30087 0.829013,0.38975 0.320442,0.11525 0.654605,0.185937 0.971733,0.311047 0,0 -5.392528,0.644916 -5.392528,0.644916 z"
       inkscape:connector-curvature="0" />
    <path
       style="fill:#008000;fill-opacity:1;fill-rule:nonzero;stroke:none;stroke-width:0.80000001;stroke-miterlimit:4;stroke-dasharray:none;stroke-opacity:1"
       id="path5665"
       d="M 35.353975,8.7925536 C 35.188346,8.6419921 34.972456,8.578366 34.782108,8.4681048 34.445121,8.2729022 34.778083,8.4445729 34.447994,8.280919 34.307947,8.2191457 34.170677,8.1784511 34.019466,8.1623847 c 0,0 5.336903,-0.679568 5.336903,-0.679568 l 0,0 c 0.13684,0.070351 0.27299,0.1419088 0.404348,0.2222596 0.310709,0.1788996 0.642514,0.3397984 0.985786,0.4425616 0,0 -5.392528,0.6449157 -5.392528,0.6449157 z"
       inkscape:connector-curvature="0" />
    <path
       style="fill:#008000;fill-opacity:1;fill-rule:nonzero;stroke:none;stroke-width:0.80000001;stroke-miterlimit:4;stroke-dasharray:none;stroke-opacity:1"
       id="path5667"
       d="m 30.009245,13.94982 c 0.419729,0.01387 0.839881,0.01352 1.259805,0.013 0.289847,-0.01684 0.561619,0.0022 0.845234,0.05803 0,0 -5.191234,0.768107 -5.191234,0.768107 l 0,0 c -0.286261,-0.0025 -0.572507,-0.0037 -0.858781,-0.0018 -0.474672,-5.97e-4 -0.949452,9.67e-4 -1.423993,0.013 0,0 5.368969,-0.850361 5.368969,-0.850361 z"
       inkscape:connector-curvature="0" />
    <path
       style="fill:#008000;fill-opacity:1;fill-rule:nonzero;stroke:none;stroke-width:0.80000001;stroke-miterlimit:4;stroke-dasharray:none;stroke-opacity:1"
       id="path5669"
       d="m 38.008036,18.113024 c 0.411295,-0.03974 0.805978,-0.180753 1.20336,-0.287873 0,0 5.206591,0.700034 5.206591,0.700034 l 0,0 c -0.353214,0.073 -0.707179,0.157671 -1.026502,0.331887 0,0 -5.383449,-0.744048 -5.383449,-0.744048 z"
       inkscape:connector-curvature="0" />
    <path
       style="fill:#008000;fill-opacity:1;fill-rule:nonzero;stroke:none;stroke-width:0.80000001;stroke-miterlimit:4;stroke-dasharray:none;stroke-opacity:1"
       id="path5671"
       d="m 39.133036,9.2380242 c 0.07144,-0.030235 0.147944,0.030601 0.218813,0.01283 C 39.550173,9.2011211 39.567851,8.985139 39.556332,8.8260025 39.427247,8.4457328 39.133492,8.1371353 38.81175,7.9066363 38.332587,7.4946066 38.96888,8.0296132 38.543044,7.7053176 38.464932,7.6458319 38.372947,7.4976485 38.263578,7.4864 c -0.02806,-0.00289 -0.05507,0.01226 -0.08261,0.018391 -0.03484,0.00646 -0.06968,0.012929 -0.104514,0.019394 0,0 5.346628,-0.709928 5.346628,-0.709928 l 0,0 c 0.04533,0.026997 0.09066,0.053993 0.135997,0.080989 0.185646,0.1928304 0.367751,0.3868474 0.561328,0.5724064 0.33663,0.3881637 0.65653,0.8090193 0.760357,1.3237721 0.02231,0.3665758 0.01295,0.607585 -0.166547,0.9336122 -0.117519,0.2134534 -0.0518,0.1426735 -0.197731,0.2570348 0,0 -5.383449,-0.7440474 -5.383449,-0.7440474 z"
       inkscape:connector-curvature="0" />
    <path
       style="fill:#008000;fill-opacity:1;fill-rule:nonzero;stroke:none;stroke-width:0.80000001;stroke-miterlimit:4;stroke-dasharray:none;stroke-opacity:1"
       id="path5673"
       d="m 32.276486,5.5768252 c -1.714316,0.00413 -3.428627,0.013174 -5.142948,0.01238 -0.07189,-3.33e-5 0.143481,-0.00928 0.215169,-0.014662 0.272497,-0.020459 0.52011,-0.069443 0.779689,-0.1545467 0.04189,-0.023504 0.187296,-0.096345 0.225174,-0.1456657 C 28.491772,5.0943829 28.185544,4.8244979 28.086334,4.7229872 27.866526,4.5144235 27.516662,4.3741285 27.373644,4.0902333 27.275461,3.8953379 27.328262,3.8138342 27.36209,3.5989277 27.47197,3.3836192 27.4029,3.4821992 27.570287,3.3038784 c 0,0 5.361761,0.59979 5.361761,0.59979 l 0,0 c -0.115115,-0.033032 -0.06226,-0.01715 -0.158741,-0.047073 -0.01448,-0.037881 -0.02899,-0.07575 -0.04344,-0.1136437 -0.0017,-0.0045 -0.0082,-0.017165 -0.0051,-0.013546 0.193906,0.2204622 0.418921,0.4110535 0.604125,0.6404615 0.06422,0.093351 0.137481,0.1810878 0.192657,0.2800528 0.196128,0.3517803 0.289431,0.8055735 0.05841,1.1667297 -0.04096,0.064027 -0.105704,0.1092449 -0.158557,0.1638673 -0.06298,0.049328 -0.120773,0.1061238 -0.188948,0.1479832 -1.798056,1.1040044 -5.461333,-1.7905746 -6.299649,0.294675 0,0 5.343642,-0.8463497 5.343642,-0.8463497 z"
       inkscape:connector-curvature="0" />
    <path
       style="fill:#008000;fill-opacity:1;fill-rule:nonzero;stroke:none;stroke-width:0.80000001;stroke-miterlimit:4;stroke-dasharray:none;stroke-opacity:1"
       id="path5675"
       d="m 19.985143,15.750009 c 0.619028,-0.06048 1.130331,-0.438032 1.654948,-0.740021 0.318225,-0.159413 0.631869,-0.331939 0.96149,-0.467681 1.78846,-0.736512 5.424044,-0.06593 6.106729,-0.04989 0.631322,0.27859 1.161759,0.76498 1.811334,1.004826 0.129708,0.04789 0.265769,0.07641 0.398653,0.114616 0.656819,0.148528 1.328208,0.20335 2.000199,0.202345 0.175722,-2.63e-4 0.702834,-0.006 0.527116,-0.0073 -1.474305,-0.01037 -2.948652,-0.01341 -4.422978,-0.02012 1.381263,-0.08178 2.700194,-0.53067 4.040572,-0.83452 0.374188,-0.08483 0.751148,-0.156916 1.126722,-0.235374 1.071545,-0.206509 2.15279,-0.356247 3.236091,-0.484689 0.413298,-0.049 1.133079,-0.13683 1.564417,-0.137353 1.834015,-0.0022 3.667949,0.02482 5.501924,0.03723 0.829972,0.09026 1.612593,0.372224 2.388414,0.662939 0,0 -4.998788,0.610519 -4.998788,0.610519 l 0,0 c -0.72563,-0.26663 -1.464994,-0.487011 -2.242891,-0.531699 1.375651,-0.01244 2.751324,-0.02258 4.126952,-0.03731 0.275045,-0.0029 -0.55032,-0.0086 -0.825179,0.002 -1.421536,0.05442 -2.838561,0.252569 -4.238164,0.495643 -0.342918,0.07579 -0.687973,0.142492 -1.028754,0.227378 -1.232797,0.307081 -2.421206,0.795633 -3.683749,0.977299 -1.843403,0.01856 -3.686763,0.04225 -5.530211,0.05568 -0.883286,0.0064 -1.771614,-0.09844 -2.61879,-0.351774 -0.149005,-0.05978 -0.301741,-0.110998 -0.447013,-0.179352 -0.6164,-0.290031 -1.149989,-0.769879 -1.848906,-0.866753 1.612124,-0.005 3.22454,0.01619 4.836371,-0.01489 0.101916,-0.002 -0.195128,-0.07097 -0.297048,-0.07265 -0.100555,-0.0017 -0.197893,0.03701 -0.295087,0.06284 -0.349198,0.09281 -0.684231,0.235057 -1.009279,0.39067 -0.314785,0.162217 -0.614795,0.341267 -0.900515,0.551782 -0.188835,0.139131 -0.213702,0.19223 -0.39689,0.308798 -0.03065,0.0195 -0.06557,0.03128 -0.09836,0.04692 0,0 -5.399331,-0.720077 -5.399331,-0.720077 z"
       inkscape:connector-curvature="0" />
    <path
       style="fill:#008000;fill-opacity:1;fill-rule:nonzero;stroke:none;stroke-width:0.80000001;stroke-miterlimit:4;stroke-dasharray:none;stroke-opacity:1"
       id="path5677"
       d="m 30.240525,10.345086 c -0.20448,-0.08552 -0.408236,-0.169127 -0.615454,-0.248737 0,0 5.129399,-0.6586759 5.129399,-0.6586759 l 0,0 c 0.29351,0.071085 0.58601,0.1446315 0.885387,0.1873363 0,0 -5.399332,0.7200766 -5.399332,0.7200766 z"
       inkscape:connector-curvature="0" />
    <path
       style="fill:#008000;fill-opacity:1;fill-rule:nonzero;stroke:none;stroke-width:0.80000001;stroke-miterlimit:4;stroke-dasharray:none;stroke-opacity:1"
       id="path5679"
       d="m 16.524291,8.4060508 c 0.63047,-0.279184 1.336034,-0.2957509 2.013147,-0.3405546 0,0 4.974088,0.7549309 4.974088,0.7549309 l 0,0 c -0.53776,0.033833 -1.079959,0.059454 -1.606391,0.1838093 0,0 -5.380844,-0.5981856 -5.380844,-0.5981856 z"
       inkscape:connector-curvature="0" />
    <path
       style="fill:#008000;fill-opacity:1;fill-rule:nonzero;stroke:none;stroke-width:0.80000001;stroke-miterlimit:4;stroke-dasharray:none;stroke-opacity:1"
       id="path5681"
       d="m 47.469562,12.955489 c -0.585325,-0.446709 -1.351652,-0.557052 -2.055774,-0.689592 -0.190072,-0.02688 -0.380145,-0.05376 -0.570217,-0.08064 0,0 4.946651,-0.706629 4.946651,-0.706629 l 0,0 c 0.19659,0.03231 0.393181,0.06462 0.589771,0.09693 0.198343,0.03869 0.398177,0.07039 0.595028,0.116068 0.657083,0.152469 1.281446,0.418978 1.875991,0.733264 0,0 -5.38145,0.530595 -5.38145,0.530595 z"
       inkscape:connector-curvature="0" />
    <path
       style="fill:#008000;fill-opacity:1;fill-rule:nonzero;stroke:none;stroke-width:0.80000001;stroke-miterlimit:4;stroke-dasharray:none;stroke-opacity:1"
       id="path5685"
       d="m 27.911668,10.418893 c 0.997578,-0.399814 2.05744,-0.6092396 3.128492,-0.418761 0.24497,0.04357 0.492781,0.08902 0.724501,0.179649 0.369752,0.14462 0.71361,0.348259 1.070416,0.522389 0.596803,0.449238 0.636322,0.446093 1.103872,0.893062 0.121115,0.115783 0.249342,0.226237 0.352894,0.357963 0.461504,0.587068 0.741874,1.067668 1.059584,1.717295 0.255734,0.486285 0.29868,0.583704 0.598423,1.080263 0.08319,0.137812 0.148012,0.29157 0.260743,0.406479 0.07844,0.07996 0.202609,0.09745 0.295309,0.160318 0.129325,0.0877 0.2375,0.203405 0.361951,0.297896 -0.165215,-0.120761 -0.34336,-0.225577 -0.495646,-0.362282 -0.01778,-0.01596 0.04466,-0.02284 0.0685,-0.02116 0.157394,0.01106 0.312526,0.04465 0.469657,0.05897 0.402446,0.03666 0.812971,0.0082 1.215534,-0.0035 0.09216,-0.01813 0.184312,-0.03627 0.276468,-0.0544 0.01712,-0.0333 0.02024,-0.07909 0.05137,-0.0999 0.147021,-0.09829 0.318213,-0.155634 0.469021,-0.248012 0.119122,-0.07297 0.218272,-0.176019 0.338721,-0.246775 0.980157,-0.575778 0.6096,-0.199622 0.924898,-0.53648 -0.504137,0.3101 -0.481808,0.251898 -0.812926,1.253745 -0.07923,0.239729 0.0095,0.505472 -0.0069,0.757418 -0.0085,0.129878 -8.01e-4,-0.260959 -0.01708,-0.390092 -0.187455,-1.486469 -0.0821,0.09171 -0.154925,-1.414279 -0.03505,0.160347 0.0017,0.356485 -0.105153,0.481042 -0.05424,0.06321 -0.162569,-0.04364 -0.235159,-0.08448 -0.206832,-0.116372 -0.399329,-0.256563 -0.598993,-0.384844 0,0 3.135041,-4.159117 3.135041,-4.159117 l 0,0 c 0.991735,0.795748 1.874426,1.32558 2.461451,2.519686 0.22917,0.466172 0.235907,1.011776 0.35386,1.517664 -0.06747,0.412726 0.0545,0.0081 0.163499,0.555501 0.08918,0.447862 0.237386,0.911402 0.157038,1.360932 -0.243428,1.361936 -0.561344,1.497647 -1.35584,2.255673 -0.237984,0.155863 -0.475968,0.311726 -0.713952,0.46759 -0.105347,0.04682 -0.216604,0.08213 -0.316041,0.140458 -0.298269,0.174963 -0.573296,0.388221 -0.874574,0.557951 -0.920296,0.518464 -1.934907,0.907909 -2.998631,0.95714 -0.84785,0.02171 -1.688658,0.02886 -2.529684,-0.10125 -0.282201,-0.04366 -0.574448,-0.05192 -0.84422,-0.145551 -0.462797,-0.160624 -0.890977,-0.407537 -1.336466,-0.611305 -0.325997,-0.275636 -0.764826,-0.625852 -1.025012,-0.95186 -0.587091,-0.735614 -0.943917,-1.627968 -1.533513,-2.360264 -0.09173,-0.122048 -0.509249,-0.648716 -0.5764,-0.83523 -0.01784,-0.04956 0.138053,0.141704 0.130125,0.08963 -0.02368,-0.155487 -0.358123,-0.189133 -0.308859,-0.35835 0.39406,-0.08227 -0.144845,0.01522 0.100702,-0.08429 0.04474,-0.01813 0.157565,-0.0075 0.135719,-0.05057 -0.07997,-0.157601 -0.591274,0.421674 -0.516138,0.121261 0,0 -2.051663,-4.787214 -2.051663,-4.787214 z"
       inkscape:connector-curvature="0" />
    <path
       style="fill:#008000;fill-opacity:1;fill-rule:nonzero;stroke:none;stroke-width:0.80000001;stroke-miterlimit:4;stroke-dasharray:none;stroke-opacity:1"
       id="path5687"
       d="m 17.911668,21.331107 c -0.918846,-0.515739 -1.3121,-0.688376 -2.157787,-1.378133 -0.332757,-0.271401 -0.617208,-0.597511 -0.937834,-0.88314 -0.330057,-0.294031 -0.4563,-0.383791 -0.72384,-0.579954 0,0 3.284336,-4.04226 3.284336,-4.04226 l 0,0 c 1.541512,1.286615 -0.941703,-0.818767 0.80741,0.795047 0.194782,0.179714 0.414281,0.330691 0.624666,0.491859 0.716519,0.548894 0.525101,0.411073 1.154712,0.809367 0,0 -2.051663,4.787214 -2.051663,4.787214 z"
       inkscape:connector-curvature="0" />
    <path
       style="fill:#008000;fill-opacity:1;fill-rule:nonzero;stroke:none;stroke-width:0.80000001;stroke-miterlimit:4;stroke-dasharray:none;stroke-opacity:1"
       id="path5689"
       d="m 16.254226,11.508452 c 0.166666,-0.08333 0.34379,-0.148409 0.5,-0.25 0.152003,-0.09886 0.257218,-0.264698 0.418579,-0.347403 0.14867,-0.0762 1.130658,-0.454724 1.485743,-0.517205 0.267682,-0.0471 0.540135,-0.06117 0.810202,-0.09176 0,0 0,5.208334 0,5.208334 l 0,0 c 0.186734,-0.03059 0.372164,-0.07062 0.560202,-0.09176 0.07019,-0.0079 -0.135481,0.04218 -0.205442,0.05187 -0.04011,0.0056 -0.08283,-0.01918 -0.121315,-0.0066 -0.545705,0.178676 -0.726231,0.287502 -1.206421,0.527598 0,0 -2.241548,-4.483097 -2.241548,-4.483097 z"
       inkscape:connector-curvature="0" />
    <path
       style="fill:#008000;fill-opacity:1;fill-rule:nonzero;stroke:none;stroke-width:0.80000001;stroke-miterlimit:4;stroke-dasharray:none;stroke-opacity:1"
       id="path5691"
       d="m 25.188076,18.582853 c 1.077762,0.886591 2.445876,1.256838 3.738983,1.705238 0.581619,0.201684 1.160786,0.410374 1.741523,0.614585 0.682738,0.318754 0.745759,0.300463 1.34922,0.780246 0.126026,0.100198 0.224219,0.231478 0.343997,0.339066 0.03947,0.03546 -0.06819,-0.08131 -0.102289,-0.121958 0,0 -3.233864,4.082752 -3.233864,4.082752 l 0,0 c -0.165607,-0.144819 -0.331197,-0.289658 -0.496821,-0.434458 -0.05479,-0.0479 0.103817,0.103302 0.164311,0.143754 0.107584,0.07194 0.22183,0.133905 0.337558,0.191847 0.03357,0.01681 -0.05993,-0.04523 -0.0899,-0.06785 -0.570771,-0.200715 -1.140609,-0.404081 -1.711602,-0.604165 -1.797423,-0.629842 -3.338703,-1.144463 -4.911332,-2.286424 -0.408678,-0.29676 -0.753957,-0.672225 -1.130935,-1.008338 0,0 4.001152,-3.334294 4.001152,-3.334294 z"
       inkscape:connector-curvature="0" />
    <path
       style="fill:#00d400;fill-opacity:1;fill-rule:nonzero;stroke:none;stroke-width:0.80000001;stroke-miterlimit:4;stroke-dasharray:none;stroke-opacity:1"
       id="path5697"
       d="m 26.462995,24.159529 c -0.241268,-0.04378 -0.481406,-0.09432 -0.723805,-0.131326 -1.526119,-0.232975 0.516156,0.159698 -1.552816,-0.266774 -0.168062,-0.03464 -0.33452,-0.07837 -0.504242,-0.10366 -0.0338,-0.005 -0.13499,0.0059 -0.101639,0.01339 0.0761,0.01699 0.155578,0.01068 0.233368,0.01602 0.318888,-0.05033 0.405622,-0.08166 0.274131,-0.03731 0,0 -1.519734,-4.776307 -1.519734,-4.776307 l 0,0 c 0.325298,-0.10201 0.09136,-0.03303 0.711631,-0.170118 0.223623,-0.01028 0.447123,-0.03798 0.670868,-0.03085 0.501541,0.01599 0.826813,0.08622 1.300369,0.190977 0.166353,0.0368 0.329212,0.0901 0.497221,0.118403 0.294143,0.04954 0.592552,0.07007 0.887463,0.114822 0.218142,0.0331 0.43413,0.07912 0.651195,0.118674 0,0 -0.82401,4.944058 -0.82401,4.944058 z"
       inkscape:connector-curvature="0" />
    <path
       style="fill:#00d400;fill-opacity:1;fill-rule:nonzero;stroke:none;stroke-width:0.80000001;stroke-miterlimit:4;stroke-dasharray:none;stroke-opacity:1"
       id="path5699"
       d="M 15.006199,17.732825 C 14.875396,17.204967 14.847835,16.665478 14.837623,16.125 c 0,0 5.012254,0 5.012254,0 l 0,0 c -0.0267,0.129161 0.0069,0.26343 0.01892,0.392175 0,0 -4.862602,1.21565 -4.862602,1.21565 z"
       inkscape:connector-curvature="0" />
    <path
       style="fill:#00d400;fill-opacity:1;fill-rule:nonzero;stroke:none;stroke-width:0.80000001;stroke-miterlimit:4;stroke-dasharray:none;stroke-opacity:1"
       id="path5701"
       d="m 24.008904,12.051781 c 0.129259,-0.86492 0.446422,-1.840486 0.961166,-2.5634886 0.214664,-0.3015134 0.47523,-0.5675561 0.712845,-0.8513341 0,0 3.82167,3.5385837 3.82167,3.5385837 l 0,0 c -0.1772,-0.01965 -0.172654,0.179133 -0.252806,0.304218 -0.0091,0.01421 -0.04502,-0.0029 -0.04879,0.01352 -0.04357,0.190552 -0.05793,0.386623 -0.0869,0.579934 0,0 -5.107191,-1.021438 -5.107191,-1.021438 z"
       inkscape:connector-curvature="0" />
    <path
       style="fill:#00d400;fill-opacity:1;fill-rule:nonzero;stroke:none;stroke-width:0.80000001;stroke-miterlimit:4;stroke-dasharray:none;stroke-opacity:1"
       id="path5703"
       d="m 38.5625,8.3541667 c 0.451511,0.1920806 0.876623,0.4397656 1.327596,0.6332847 0.03954,0.2101744 0.154388,0.026224 0.225772,0.056625 0.287783,0.1225609 0.570346,0.2570353 0.855519,0.385553 0.310651,0.3477521 0.621301,0.6955046 0.931952,1.0432566 0,0 -4.009804,3.007353 -4.009804,3.007353 l 0,0 c 0.170026,0.160252 0.340052,0.320504 0.510078,0.480756 0.128923,0.03998 0.518122,0.151001 0.386769,0.119928 -1.2055,-0.285174 -2.291478,-0.951621 -3.352882,-1.56009 0,0 3.125,-4.1666667 3.125,-4.1666667 z"
       inkscape:connector-curvature="0" />
    <path
       style="fill:#00d400;fill-opacity:1;fill-rule:nonzero;stroke:none;stroke-width:0.80000001;stroke-miterlimit:4;stroke-dasharray:none;stroke-opacity:1"
       id="path5705"
       d="m 37.368872,21.125 c -0.255147,-0.632402 -0.109352,-0.121755 -0.112562,-1.000631 -6.43e-4,-0.176006 -0.07575,-0.95753 -0.04369,-1.186869 0.05007,-0.358201 0.149419,-0.707768 0.224128,-1.061652 0,0 4.72025,1.685804 4.72025,1.685804 l 0,0 c 0.02263,-0.208051 0.03382,-0.417664 0.06788,-0.624152 0.0128,-0.07762 -0.006,0.157342 -0.0039,0.235985 0.0041,0.150848 -0.0028,0.303405 0.02267,0.452146 0.22386,1.307689 0.179959,-0.162999 0.137437,1.499369 0,0 -5.012255,0 -5.012255,0 z"
       inkscape:connector-curvature="0" />
    <path
       style="fill:#00d400;fill-opacity:1;fill-rule:nonzero;stroke:none;stroke-width:0.80000001;stroke-miterlimit:4;stroke-dasharray:none;stroke-opacity:1"
       id="path5707"
       d="m 43.520833,17.375 c -0.02137,-0.157685 -0.03368,-0.483568 -0.158239,-0.627298 -0.02168,-0.02502 -0.05288,0.06166 -0.03857,0.09152 0.08,0.166993 0.203248,0.309575 0.304872,0.464363 0,0 3.429712,-3.91967 3.429712,-3.91967 l 0,0 c 0.26829,0.300621 0.58138,0.566595 0.804872,0.901863 0.611567,0.917436 0.810649,2.012574 0.865689,3.089222 0,0 -5.208334,0 -5.208334,0 z"
       inkscape:connector-curvature="0" />
    <path
       style="fill:#00d400;fill-opacity:1;fill-rule:nonzero;stroke:none;stroke-width:0.80000001;stroke-miterlimit:4;stroke-dasharray:none;stroke-opacity:1"
       id="path5709"
       d="m 46.868872,15.8125 c -0.167399,0.0364 -0.221405,-0.548401 -0.196172,-0.401576 0.114403,0.665674 0.448589,0.98798 1.156412,1.33161 0.239753,0.116393 0.532767,0.01658 0.799151,0.02487 0,0 -0.944027,-5.034811 -0.944027,-5.034811 l 0,0 c 0.433051,-0.02296 0.885398,-0.198754 1.299152,-0.06888 1.540091,0.483428 2.377688,1.548151 2.713061,3.042628 0.08185,0.36475 0.123119,0.737437 0.184678,1.106155 0,0 -5.012255,0 -5.012255,0 z"
       inkscape:connector-curvature="0" />
    <path
       style="fill:#00d400;fill-opacity:1;fill-rule:nonzero;stroke:none;stroke-width:0.80000001;stroke-miterlimit:4;stroke-dasharray:none;stroke-opacity:1"
       id="path5711"
       d="m 36.506603,28.213913 c -0.232626,-0.05494 -0.489233,0.0028 -0.689143,0.132647 -0.05029,0.03267 0.103198,-0.03243 0.01019,0.03554 -0.09975,0.07289 -0.20641,0.135833 -0.309615,0.20375 -0.884892,0.400052 -0.534152,0.25302 -1.043333,0.461728 0,0 -1.871277,-4.649841 -1.871277,-4.649841 l 0,0 c 0.495699,-0.197337 0.525903,-0.241211 0.159792,7.9e-4 0.419593,-0.275966 0.828377,-0.551068 1.294324,-0.745086 0.134046,-0.05582 0.272194,-0.101363 0.409829,-0.147625 0.0791,-0.02659 0.163859,-0.03696 0.240124,-0.07084 0.183337,-0.08144 0.357269,-0.182595 0.535904,-0.273892 0,0 1.263206,5.052826 1.263206,5.052826 z"
       inkscape:connector-curvature="0" />
    <path
       style="fill:#00d400;fill-opacity:1;fill-rule:nonzero;stroke:none;stroke-width:0.80000001;stroke-miterlimit:4;stroke-dasharray:none;stroke-opacity:1"
       id="path5713"
       d="m 11.104167,11.5625 c 0.42936,-0.458026 0.665015,-0.768682 1.207886,-1.106083 0.286671,-0.17817 0.603396,-0.302676 0.905094,-0.454013 0,0 2.003206,4.807692 2.003206,4.807692 l 0,0 c 0.147648,-0.134718 0.214223,-0.190855 0.05048,-0.122596 0,0 -4.166666,-3.125 -4.166666,-3.125 z"
       inkscape:connector-curvature="0" />
    <path
       style="fill:#00d400;fill-opacity:1;fill-rule:nonzero;stroke:none;stroke-width:0.80000001;stroke-miterlimit:4;stroke-dasharray:none;stroke-opacity:1"
       id="path5715"
       d="m 26.345337,4.457092 c 0.431715,-0.2190514 1.12768,-0.5212709 1.61069,-0.5817532 0.549441,-0.068801 0.741452,-0.029909 1.173237,0.029294 0.186565,0.040129 0.464206,-0.035096 0.638968,0.00312 0.461626,0.1009541 0.915216,0.2356728 1.372824,0.3535093 0,0 -2.168831,4.7352829 -2.168831,4.7352829 l 0,0 c 0.287035,0.039711 0.581114,0.044496 0.861106,0.1191343 0.129174,0.034434 -0.267363,0.00494 -0.40104,0.00351 -0.501548,-0.00539 -0.496357,-0.014226 -1.01468,-0.055072 -0.06458,-0.00898 -0.258341,-0.018079 -0.193743,-0.026936 0.219583,-0.030107 0.445215,-0.00119 0.663854,-0.037521 0.135371,-0.022497 0.256857,-0.177356 0.388109,-0.1373044 0.277465,0.084668 -1.607446,0.304782 -0.996168,0.4305512 0,0 -1.934326,-4.8358161 -1.934326,-4.8358161 z"
       inkscape:connector-curvature="0" />
  </g>
</svg>
