<?xml version="1.0" encoding="UTF-8" standalone="no"?>
<!-- Created with Inkscape (http://www.inkscape.org/) -->

<svg
   xmlns:dc="http://purl.org/dc/elements/1.1/"
   xmlns:cc="http://creativecommons.org/ns#"
   xmlns:rdf="http://www.w3.org/1999/02/22-rdf-syntax-ns#"
   xmlns:svg="http://www.w3.org/2000/svg"
   xmlns="http://www.w3.org/2000/svg"
   xmlns:sodipodi="http://sodipodi.sourceforge.net/DTD/sodipodi-0.dtd"
   xmlns:inkscape="http://www.inkscape.org/namespaces/inkscape"
   sodipodi:docname="Einstellungen.svg"
   inkscape:version="0.91 r13725"
   version="1.1"
   id="svg2"
   viewBox="0 0 64.000001 64.000001"
   height="64"
   width="64"
   inkscape:export-filename="/Users/ronny/ownCloud/Programmierung/Verkehrssimulation/Bilder/Menu/Einstellungen.png"
   inkscape:export-xdpi="45"
   inkscape:export-ydpi="45">
  <sodipodi:namedview
     inkscape:window-maximized="0"
     inkscape:window-y="0"
     inkscape:window-x="3"
     inkscape:window-height="719"
     inkscape:window-width="1366"
     units="px"
     showgrid="false"
     inkscape:current-layer="layer1"
     inkscape:document-units="px"
     inkscape:cy="40.949882"
     inkscape:cx="14.942724"
     inkscape:zoom="4"
     inkscape:pageshadow="2"
     inkscape:pageopacity="0.0"
     borderopacity="1.0"
     bordercolor="#666666"
     pagecolor="#ffffff"
     id="base" />
  <defs
     id="defs4" />
  <metadata
     id="metadata7">
    <rdf:RDF>
      <cc:Work
         rdf:about="">
        <dc:format>image/svg+xml</dc:format>
        <dc:type
           rdf:resource="http://purl.org/dc/dcmitype/StillImage" />
        <dc:title />
      </cc:Work>
    </rdf:RDF>
  </metadata>
  <g
     transform="translate(0,-988.36216)"
     id="layer1"
     inkscape:groupmode="layer"
     inkscape:label="Ebene 1"
     style="display:inline">
    <rect
       ry="11.372152"
       y="989.59045"
       x="1.2282938"
       height="61.543411"
       width="61.543411"
       id="rect3336"
       style="fill:#999999;fill-rule:evenodd;stroke:#000000;stroke-width:2.45658755;stroke-linecap:butt;stroke-linejoin:miter;stroke-miterlimit:4;stroke-dasharray:none;stroke-opacity:1" />
  </g>
  <g
     style="display:inline"
     inkscape:label="Ebene 2 Kopie"
     id="g6167"
     inkscape:groupmode="layer">
    <g
       style="fill:#cccccc"
       transform="matrix(0.35218802,0,0,0.35218802,32,32)"
       inkscape:label="Gear24"
       id="g6169">
      <path
         inkscape:connector-curvature="0"
         d="m 69.80222,-5.62101 1.75337,-0.14119 4.67522,0.76577 6.49842,2.71905 0,4.55476 -6.49842,2.71905 -4.67522,0.76577 -1.75337,-0.14119 -0.92363,7.01566 1.73017,0.31742 4.31772,1.94971 5.57325,4.30832 -1.17886,4.39956 -6.98074,0.94449 -4.7141,-0.47036 -1.65709,-0.59019 -2.70794,6.53755 1.58906,0.75441 3.66597,3.00079 4.26828,5.60398 -2.27739,3.94453 -6.98732,-0.89444 -4.43174,-1.67443 -1.44787,-0.99897 -4.30772,5.61393 1.33967,1.13998 2.76439,3.84736 2.67242,6.51774 -3.2207,3.2207 -6.51774,-2.67242 -3.84736,-2.76439 -1.13998,-1.33967 -5.61393,4.30772 0.99897,1.44787 1.67443,4.43174 0.89444,6.98732 -3.94453,2.27739 -5.60398,-4.26828 -3.00079,-3.66597 -0.75441,-1.58906 -6.53755,2.70794 0.59019,1.65709 0.47036,4.7141 -0.94449,6.98074 -4.39956,1.17886 -4.30832,-5.57325 -1.94971,-4.31772 -0.31742,-1.73017 -7.01566,0.92363 0.14119,1.75337 -0.76577,4.67522 -2.71905,6.49842 -4.55476,0 -2.71905,-6.49842 -0.76577,-4.67522 0.14119,-1.75337 -7.01566,-0.92363 -0.31742,1.73017 -1.94971,4.31772 -4.30832,5.57325 -4.39956,-1.17886 -0.94449,-6.98074 0.47036,-4.7141 0.59019,-1.65709 -6.53755,-2.70794 -0.75441,1.58906 -3.00079,3.66597 -5.60398,4.26828 -3.94453,-2.27739 0.89444,-6.98732 1.67443,-4.43174 0.99897,-1.44787 -5.61393,-4.30772 -1.13998,1.33967 -3.84736,2.76439 -6.51774,2.67242 -3.2207,-3.2207 2.67242,-6.51774 2.76439,-3.84736 1.33967,-1.13998 -4.30772,-5.61393 -1.44787,0.99897 -4.43174,1.67443 -6.98732,0.89444 -2.27739,-3.94453 4.26828,-5.60398 3.66597,-3.00079 1.58906,-0.75441 -2.70794,-6.53755 -1.65709,0.59019 -4.7141,0.47036 -6.98074,-0.94449 -1.17886,-4.39956 5.57325,-4.30832 4.31772,-1.94971 1.73017,-0.31742 -0.92363,-7.01566 -1.75337,0.14119 -4.67522,-0.76577 -6.49842,-2.71905 0,-4.55476 6.49842,-2.71905 4.67522,-0.76577 1.75337,0.14119 0.92363,-7.01566 -1.73017,-0.31742 -4.31772,-1.94971 -5.57325,-4.30832 1.17886,-4.39956 6.98074,-0.94449 4.7141,0.47036 1.65709,0.59019 2.70794,-6.53755 -1.58906,-0.75441 -3.66597,-3.00079 -4.26828,-5.60398 2.27739,-3.94453 6.98732,0.89444 4.43174,1.67443 1.44787,0.99897 4.30772,-5.61393 -1.33967,-1.13998 -2.76439,-3.84736 -2.67242,-6.51774 3.2207,-3.2207 6.51774,2.67242 3.84736,2.76439 1.13998,1.33967 5.61393,-4.30772 -0.99897,-1.44787 -1.67443,-4.43174 -0.89444,-6.98732 3.94453,-2.27739 5.60398,4.26828 3.00079,3.66597 0.75441,1.58906 6.53755,-2.70794 -0.59019,-1.65709 -0.47036,-4.7141 0.94449,-6.98074 4.39956,-1.17886 4.30832,5.57325 1.94971,4.31772 0.31742,1.73017 7.01566,-0.92363 -0.14119,-1.75337 0.76577,-4.67522 2.71905,-6.49842 4.55476,0 2.71905,6.49842 0.76577,4.67522 -0.14119,1.75337 7.01566,0.92363 0.31742,-1.73017 1.94971,-4.31772 4.30832,-5.57325 4.39956,1.17886 0.94449,6.98074 -0.47036,4.7141 -0.59019,1.65709 6.53755,2.70794 0.75441,-1.58906 3.00079,-3.66597 5.60398,-4.26828 3.94453,2.27739 -0.89444,6.98732 -1.67443,4.43174 -0.99897,1.44787 5.61393,4.30772 1.13998,-1.33967 3.84736,-2.76439 6.51774,-2.67242 3.2207,3.2207 -2.67242,6.51774 -2.76439,3.84736 -1.33967,1.13998 4.30772,5.61393 1.44787,-0.99897 4.43174,-1.67443 6.98732,-0.89444 2.27739,3.94453 -4.26828,5.60398 -3.66597,3.00079 -1.58906,0.75441 2.70794,6.53755 1.65709,-0.59019 4.7141,-0.47036 6.98074,0.94449 1.17886,4.39956 -5.57325,4.30832 -4.31772,1.94971 -1.73017,0.31742 z"
         style="fill:#cccccc;stroke:#000000;stroke-width:1"
         id="path6171" />
    </g>
  </g>
  <g
     inkscape:groupmode="layer"
     id="layer3"
     inkscape:label="Ebene 3"
     style="display:inline">
    <text
       transform="translate(0,-988.36216)"
       sodipodi:linespacing="125%"
       id="text3340"
       y="1026.1498"
       x="8.527832"
       style="font-style:normal;font-weight:normal;font-size:40px;line-height:125%;font-family:sans-serif;letter-spacing:0px;word-spacing:0px;display:inline;opacity:0.98999999;fill:#000000;fill-opacity:1;stroke:#ffffff;stroke-width:0.5;stroke-linecap:butt;stroke-linejoin:miter;stroke-miterlimit:4;stroke-dasharray:none;stroke-opacity:1"
       xml:space="preserve"><tspan
         style="font-style:normal;font-variant:normal;font-weight:bold;font-stretch:normal;font-size:15px;font-family:sans-serif;-inkscape-font-specification:'sans-serif Bold';stroke:#ffffff;stroke-width:0.5;stroke-miterlimit:4;stroke-dasharray:none;stroke-opacity:1"
         y="1026.1498"
         x="8.527832"
         id="tspan3342"
         sodipodi:role="line">Menü</tspan></text>
  </g>
</svg>
