<?xml version="1.0" encoding="UTF-8" standalone="no"?>
<!-- Created with Inkscape (http://www.inkscape.org/) -->

<svg
   xmlns:dc="http://purl.org/dc/elements/1.1/"
   xmlns:cc="http://creativecommons.org/ns#"
   xmlns:rdf="http://www.w3.org/1999/02/22-rdf-syntax-ns#"
   xmlns:svg="http://www.w3.org/2000/svg"
   xmlns="http://www.w3.org/2000/svg"
   xmlns:sodipodi="http://sodipodi.sourceforge.net/DTD/sodipodi-0.dtd"
   xmlns:inkscape="http://www.inkscape.org/namespaces/inkscape"
   width="64"
   height="32"
   viewBox="0 0 63.999999 32"
   id="svg2"
   version="1.1"
   inkscape:version="0.48.4 r9939"
   sodipodi:docname="Gras.svg"
   inkscape:export-filename="/home/ronny/ownCloud/Programmierung/Python/Verkehrssimulation/Gras.png"
   inkscape:export-xdpi="90"
   inkscape:export-ydpi="90">
  <defs
     id="defs4" />
  <sodipodi:namedview
     id="base"
     pagecolor="#ffffff"
     bordercolor="#666666"
     borderopacity="1.0"
     inkscape:pageopacity="0.0"
     inkscape:pageshadow="2"
     inkscape:zoom="6.48"
     inkscape:cx="31.92456"
     inkscape:cy="27.037098"
     inkscape:document-units="px"
     inkscape:current-layer="layer1"
     showgrid="true"
     inkscape:snap-bbox="true"
     inkscape:window-width="1301"
     inkscape:window-height="744"
     inkscape:window-x="65"
     inkscape:window-y="24"
     inkscape:window-maximized="1"
     units="px"
     fit-margin-top="0"
     fit-margin-left="0"
     fit-margin-right="0"
     fit-margin-bottom="0"
     inkscape:snap-global="true">
    <inkscape:grid
       type="axonomgrid"
       id="grid4136"
       units="mm"
       empspacing="5"
       visible="true"
       enabled="true"
       snapvisiblegridlinesonly="true"
       originx="-0.035564259mm"
       originy="-0.005512509mm" />
  </sodipodi:namedview>
  <metadata
     id="metadata7">
    <rdf:RDF>
      <cc:Work
         rdf:about="">
        <dc:format>image/svg+xml</dc:format>
        <dc:type
           rdf:resource="http://purl.org/dc/dcmitype/StillImage" />
        <dc:title></dc:title>
      </cc:Work>
    </rdf:RDF>
  </metadata>
  <g
     inkscape:label="Ebene 1"
     inkscape:groupmode="layer"
     id="layer1"
     transform="translate(-0.12601509,-1020.3426)">
    <path
       style="fill:#008000;stroke:none"
       d="M 32.220235,1052.3621 -5.0094487e-7,1036.4173 32.220235,1020.4724 l 32.220237,15.9449 z"
       id="path3835"
       inkscape:connector-curvature="0" />
    <path
       style="fill:#917c6f;fill-opacity:1;stroke:none"
       id="path3841"
       d="m 16.572346,19.946004 c 0.02775,-0.738161 0.09599,-1.472089 0.194408,-2.203993 0.180269,-1.207372 0.54871,-2.372453 0.918261,-3.532029 0.188272,-0.552996 0.450449,-1.084001 0.858246,-1.510015 0.215764,-0.225403 0.486089,-0.433947 0.726416,-0.630521 0.968375,-0.731295 2.038767,-1.27765 3.112432,-1.852255 0.198778,-0.106382 0.716692,-0.2830511 0.938027,-0.3381041 0.169722,-0.042215 0.343608,-0.065452 0.515412,-0.098179 1.199835,-0.1797514 2.362087,0.090549 3.497936,0.4546956 1.113395,0.36257 2.146369,0.915586 3.156704,1.498532 0.659771,0.441841 1.395371,0.793748 1.902977,1.420567 0.163806,0.353229 0.374882,0.659699 0.615781,0.963061 0.308365,0.360772 0.716174,0.60961 1.105457,0.8722 0.493446,0.281576 0.971376,0.581521 1.430694,0.915555 0.470215,0.342791 0.924527,0.706483 1.42365,1.006461 0.387117,0.158677 0.777514,0.330713 1.192058,0.406133 0.171799,0.03126 0.367032,0.03193 0.540477,0.03817 0.819227,0.0094 1.622308,-0.198364 2.411899,-0.394852 0.905051,-0.23889 1.753073,-0.623945 2.591604,-1.03184 0.08608,-0.04298 0.683488,-0.340332 0.775254,-0.389809 0.121048,-0.06526 0.477034,-0.273916 0.357844,-0.205319 -2.902291,1.670338 -1.511615,0.887952 -0.882231,0.457507 0.62957,-0.398989 1.048457,-0.971039 1.402555,-1.612399 0.343206,-0.628156 0.535928,-1.318415 0.742481,-1.999105 0.07331,-0.231128 0.128282,-0.466962 0.179372,-0.703724 0,0 2.017892,-0.974071 2.017892,-0.974071 l 0,0 c -0.05458,0.246874 -0.113703,0.492594 -0.194623,0.732512 -0.222379,0.694583 -0.429187,1.398745 -0.761185,2.051279 -0.330832,0.666819 -0.709848,1.28669 -1.348627,1.70335 -1.249429,0.885857 -2.604769,1.615718 -3.979244,2.287735 -0.844691,0.401313 -1.703926,0.764838 -2.614138,0.99325 -0.81826,0.202139 -1.655775,0.398082 -2.503562,0.379692 -0.629082,-0.05454 -1.221277,-0.265891 -1.790811,-0.534566 -0.499229,-0.30634 -0.952796,-0.675294 -1.419684,-1.027977 -0.466251,-0.323971 -0.967431,-0.589489 -1.442911,-0.899542 -0.414317,-0.27158 -0.840324,-0.536557 -1.165475,-0.917923 -0.240171,-0.305371 -0.46923,-0.603614 -0.606714,-0.972496 -0.447183,-0.623602 -1.13905,-0.994067 -1.773136,-1.399976 -0.993298,-0.574727 -1.999524,-1.130165 -3.098905,-1.480509 -1.128184,-0.340935 -2.289093,-0.561627 -3.466454,-0.34287 -0.460037,0.111692 -0.534954,0.112778 -0.965017,0.280805 -0.154242,0.06026 -0.592187,0.291786 -0.455483,0.198329 0.43965,-0.300563 0.910561,-0.552687 1.36937,-0.823102 0.138876,-0.08185 -0.27483,0.168665 -0.409449,0.257341 -0.136843,0.09014 -0.269836,0.185991 -0.404754,0.278986 -0.165005,0.131011 -0.558771,0.437382 -0.717015,0.586872 -0.427183,0.403553 -0.720683,0.908098 -0.935555,1.450936 -0.406518,1.1379 -0.770758,2.289775 -0.93158,3.492382 -0.09127,0.701189 -0.150262,1.403233 -0.07016,2.109137 0,0 -2.040493,1.039683 -2.040493,1.039683 z"
       inkscape:connector-curvature="0"
       transform="translate(0.12601459,1020.3426)" />
  </g>
</svg>
