<?xml version="1.0" encoding="UTF-8" standalone="no"?>
<!-- Created with Inkscape (http://www.inkscape.org/) -->

<svg
   xmlns:osb="http://www.openswatchbook.org/uri/2009/osb"
   xmlns:dc="http://purl.org/dc/elements/1.1/"
   xmlns:cc="http://creativecommons.org/ns#"
   xmlns:rdf="http://www.w3.org/1999/02/22-rdf-syntax-ns#"
   xmlns:svg="http://www.w3.org/2000/svg"
   xmlns="http://www.w3.org/2000/svg"
   xmlns:sodipodi="http://sodipodi.sourceforge.net/DTD/sodipodi-0.dtd"
   xmlns:inkscape="http://www.inkscape.org/namespaces/inkscape"
   width="64"
   height="32"
   viewBox="0 0 64.000001 32"
   id="svg2"
   version="1.1"
   inkscape:version="0.48.4 r9939"
   sodipodi:docname="Gehweg.svg"
   inkscape:export-filename="/home/ronny/ownCloud/Programmierung/Python/Verkehrssimulation/Gehweg.png"
   inkscape:export-xdpi="90"
   inkscape:export-ydpi="90">
  <defs
     id="defs4">
    <linearGradient
       id="linearGradient4688"
       osb:paint="solid">
      <stop
         style="stop-color:#c8beb7;stop-opacity:1;"
         offset="0"
         id="stop4690" />
    </linearGradient>
  </defs>
  <sodipodi:namedview
     id="base"
     pagecolor="#ffffff"
     bordercolor="#666666"
     borderopacity="1.0"
     inkscape:pageopacity="0.0"
     inkscape:pageshadow="2"
     inkscape:zoom="8"
     inkscape:cx="34.457238"
     inkscape:cy="15.370793"
     inkscape:document-units="px"
     inkscape:current-layer="layer1"
     showgrid="true"
     units="px"
     inkscape:window-width="1301"
     inkscape:window-height="744"
     inkscape:window-x="65"
     inkscape:window-y="24"
     inkscape:window-maximized="1">
    <inkscape:grid
       type="axonomgrid"
       id="grid4684"
       units="mm"
       empspacing="5"
       visible="true"
       enabled="true"
       snapvisiblegridlinesonly="true" />
  </sodipodi:namedview>
  <metadata
     id="metadata7">
    <rdf:RDF>
      <cc:Work
         rdf:about="">
        <dc:format>image/svg+xml</dc:format>
        <dc:type
           rdf:resource="http://purl.org/dc/dcmitype/StillImage" />
        <dc:title></dc:title>
      </cc:Work>
    </rdf:RDF>
  </metadata>
  <g
     inkscape:label="Ebene 1"
     inkscape:groupmode="layer"
     id="layer1"
     transform="translate(0,-1020.3622)">
    <path
       style="fill:#808080;fill-opacity:1;fill-rule:evenodd;stroke:none"
       d="M 32.000001,1052.3622 0,1036.3622 l 32.000001,-16 32,16 z"
       id="path4686"
       inkscape:connector-curvature="0" />
    <path
       style="fill:#666666;fill-opacity:1;stroke:none"
       id="path6148"
       d="m 8.4136841,1037.4116 c 0.4340529,-0.3314 0.8997589,-0.6351 1.3830678,-0.9111 1.4632881,-0.9169 2.2904231,-1.305 3.8131591,-1.4335 0.165952,-0.011 0.33243,-0.01 0.498678,-0.01 0,0 -2.197912,1.3862 -2.197912,1.3862 l 0,0 c -0.160142,0 -0.320053,0.01 -0.47956,0.02 -1.327215,0.1108 -2.537898,0.8741 0.867313,-0.8043 -0.485579,0.2422 -0.926158,0.5436 -1.363639,0.8456 0,0 -2.5211069,0.9044 -2.5211069,0.9044 z"
       inkscape:connector-curvature="0" />
    <path
       style="fill:#666666;fill-opacity:1;stroke:none"
       id="path6150"
       d="m 16.008834,1037.8324 c 0.491366,0.8372 1.327425,1.4268 2.157675,2.0005 0,0 -2.190259,1.188 -2.190259,1.188 l 0,0 c -0.834268,-0.6104 -1.6888,-1.2105 -2.313189,-1.998 0,0 2.345773,-1.1905 2.345773,-1.1905 z"
       inkscape:connector-curvature="0" />
    <path
       style="fill:#666666;fill-opacity:1;stroke:none"
       id="path6152"
       d="m 16.848403,1036.6795 c -0.02688,-0.4224 0.105737,-0.785 0.318829,-1.1593 0,0 2.429597,-0.9439 2.429597,-0.9439 l 0,0 c -0.226086,0.3289 -0.384916,0.6382 -0.313261,1.0286 0,0 -2.435165,1.0746 -2.435165,1.0746 z"
       inkscape:connector-curvature="0" />
    <path
       style="fill:#666666;fill-opacity:1;stroke:none"
       id="path6154"
       d="m 22.936523,1030.9262 c 0.147654,-0.4325 0.427327,-0.8039 0.753276,-1.1495 0.06041,-0.052 0.120833,-0.103 0.181249,-0.1544 0,0 2.497218,-0.8722 2.497218,-0.8722 l 0,0 c -0.06731,0.041 -0.134628,0.08 -0.201942,0.1205 -0.329079,0.3089 -0.623729,0.6186 -0.759888,1.031 0,0 -2.469913,1.0246 -2.469913,1.0246 z"
       inkscape:connector-curvature="0" />
    <path
       style="fill:#666666;fill-opacity:1;stroke:none"
       id="path6156"
       d="m 32.184978,1035.3373 c -0.05581,0.4356 0.07243,0.8572 0.199656,1.2739 0,0 -2.301636,1.0873 -2.301636,1.0873 l 0,0 c -0.151374,-0.4189 -0.306919,-0.8473 -0.327456,-1.2892 0,0 2.429436,-1.072 2.429436,-1.072 z"
       inkscape:connector-curvature="0" />
    <path
       style="fill:#666666;fill-opacity:1;stroke:none"
       id="path6158"
       d="m 32.736341,1044.9891 c -0.880497,0.3171 -0.662845,0.2461 1.887761,-0.9448 0.09498,-0.045 -0.176173,0.1081 -0.261117,0.1657 -0.248109,0.1682 -0.464039,0.3566 -0.678651,0.5554 -0.544453,0.5701 -0.373523,0.9745 0.07989,1.5389 0,0 -2.26892,1.1598 -2.26892,1.1598 l 0,0 c -0.09404,-0.1116 -0.202092,-0.2153 -0.2821,-0.3349 -0.310581,-0.464 -0.375846,-1.0236 0.0019,-1.4661 0.991183,-0.9708 2.234057,-1.6677 3.667633,-2.1357 0,0 -2.146425,1.4617 -2.146425,1.4617 z"
       inkscape:connector-curvature="0" />
    <path
       style="fill:#666666;fill-opacity:1;stroke:none"
       id="path6160"
       d="m 28.077756,1043.1858 c -0.515352,-0.4279 -1.058148,-0.8319 -1.588856,-1.2461 -0.08276,-0.068 -0.165525,-0.1354 -0.248286,-0.2031 0,0 2.271493,-1.21 2.271493,-1.21 l 0,0 c 0.07892,0.068 0.157849,0.1353 0.236773,0.203 0.527101,0.4328 1.074001,0.8488 1.663336,1.2172 0,0 -2.33446,1.239 -2.33446,1.239 z"
       inkscape:connector-curvature="0" />
    <path
       style="fill:#666666;fill-opacity:1;stroke:none"
       id="path6162"
       d="m 26.134929,1042.763 c 1.376285,0.3334 2.80517,0.4466 4.22744,0.5081 0,0 -2.047027,1.271 -2.047027,1.271 l 0,0 c -1.475768,-0.097 -2.946538,-0.2447 -4.412026,-0.4232 0,0 2.231613,-1.3559 2.231613,-1.3559 z"
       inkscape:connector-curvature="0" />
    <path
       style="fill:#666666;fill-opacity:1;stroke:none"
       id="path6164"
       d="m 32.702227,1040.6707 c 0.0047,-0.4784 0.150448,-0.9357 0.455015,-1.3338 0,0 2.473774,-0.9078 2.473774,-0.9078 l 0,0 c -0.06328,0.05 -0.13838,0.089 -0.189836,0.1478 -0.216578,0.2471 -0.335901,0.7135 -0.303789,1.0192 0,0 -2.435164,1.0746 -2.435164,1.0746 z"
       inkscape:connector-curvature="0" />
    <path
       style="fill:#666666;fill-opacity:1;stroke:none"
       id="path6166"
       d="m 39.577515,1041.2632 c 0.298021,0.3318 0.702918,0.5453 1.135771,0.7197 0,0 -2.222055,1.269 -2.222055,1.269 l 0,0 c -0.456121,-0.2011 -0.876485,-0.4426 -1.248176,-0.7498 0,0 2.33446,-1.2389 2.33446,-1.2389 z"
       inkscape:connector-curvature="0" />
    <path
       style="fill:#666666;fill-opacity:1;stroke:none"
       id="path6168"
       d="m 44.011191,1042.6672 c 0.841537,-0.5776 1.645922,-1.194 2.468548,-1.7914 0.198156,-0.1346 0.396313,-0.2692 0.594469,-0.4037 0,0 2.364882,-0.8185 2.364882,-0.8185 l 0,0 c -0.196092,0.1308 -0.392182,0.2616 -0.588272,0.3924 -0.782114,0.5692 -1.546541,1.1569 -2.311574,1.7426 0,0 -2.528053,0.8786 -2.528053,0.8786 z"
       inkscape:connector-curvature="0" />
    <path
       style="fill:#666666;fill-opacity:1;stroke:none"
       id="path6170"
       d="m 52.824804,1038.3858 c 0.651225,-0.7677 -0.155599,-1.3734 -0.796089,-1.8745 -0.524659,-0.3763 -1.126424,-0.6322 -1.74054,-0.8751 0,0 2.14465,-1.2276 2.14465,-1.2276 l 0,0 c 0.624609,0.2654 1.239817,0.5417 1.777901,0.9311 0.567093,0.4405 1.276053,0.9474 1.265518,1.6778 -0.001,0.075 -0.107503,0.3419 -0.141526,0.4316 0,0 -2.509914,0.9367 -2.509914,0.9367 z"
       inkscape:connector-curvature="0" />
    <path
       style="fill:#666666;fill-opacity:1;stroke:none"
       id="path6172"
       d="m 45.640616,1035.2506 c -0.07884,0.01 -0.159076,0.014 -0.236518,0.03 -0.110542,0.023 -0.22064,0.051 -0.325804,0.088 -0.13006,0.047 -0.499078,0.2249 -0.377617,0.1634 0.598559,-0.3032 1.198783,-0.6043 1.809538,-0.8886 0.154427,-0.072 -0.296696,0.1621 -0.439164,0.2506 -0.1473,0.091 -0.28632,0.1927 -0.429482,0.289 -0.122829,0.1024 -0.245659,0.2047 -0.36849,0.3071 0,0 -2.414236,0.8669 -2.414236,0.8669 l 0,0 c 0.121464,-0.1107 0.242927,-0.2214 0.364393,-0.332 1.337567,-0.9783 2.886922,-1.788 4.563805,-2.2366 0,0 -2.146425,1.4617 -2.146425,1.4617 z"
       inkscape:connector-curvature="0" />
    <path
       style="fill:#666666;fill-opacity:1;stroke:none"
       id="path6174"
       d="m 41.33337,1038.411 c -0.128521,-0.4293 -0.350896,-0.8316 -0.554029,-1.2368 0,0 2.250307,-1.1007 2.250307,-1.1007 l 0,0 c 0.222727,0.4 0.455128,0.7956 0.672891,1.1975 0,0 -2.369169,1.14 -2.369169,1.14 z"
       inkscape:connector-curvature="0" />
    <path
       style="fill:#666666;fill-opacity:1;stroke:none"
       id="path6176"
       d="m 39.338711,1034.2847 c 0.05719,-0.4999 -0.161573,-0.9495 -0.443807,-1.3727 -0.916746,-0.9585 -2.193337,-1.5649 -3.46659,-2.0987 0,0 2.110372,-1.2045 2.110372,-1.2045 l 0,0 c 1.316833,0.5676 2.642514,1.1945 3.636395,2.1552 0.331844,0.4388 0.592599,0.9096 0.598794,1.4461 0,0 -2.435164,1.0746 -2.435164,1.0746 z"
       inkscape:connector-curvature="0" />
    <path
       style="fill:#666666;fill-opacity:1;stroke:none"
       id="path6178"
       d="m 27.464503,1029.7426 c -0.721011,-0.017 -1.447675,-0.01 -2.141938,-0.1943 -0.458903,-0.1769 -0.524859,-0.4028 -0.578456,-0.8099 0,0 2.370353,-1.0683 2.370353,-1.0683 l 0,0 c 0.01834,0.3204 0.06336,0.4436 0.422316,0.5671 0.688907,0.1635 1.409135,0.1547 2.117998,0.1272 0,0 -2.190273,1.3782 -2.190273,1.3782 z"
       inkscape:connector-curvature="0" />
    <path
       style="fill:#666666;fill-opacity:1;stroke:none"
       id="path6180"
       d="m 30.89563,1025.0052 c 0.69825,-0.074 1.406745,-0.1138 2.107964,-0.063 0.613067,0.074 1.16791,0.3013 1.725975,0.5177 0,0 -2.13097,1.2322 -2.13097,1.2322 l 0,0 c -0.563806,-0.1903 -1.12339,-0.3866 -1.73585,-0.4198 -0.730809,-0.021 -1.453312,0.05 -2.178204,0.1231 0,0 2.211085,-1.3913 2.211085,-1.3913 z"
       inkscape:connector-curvature="0" />
    <path
       style="fill:#666666;fill-opacity:1;stroke:none"
       id="path6182"
       d="m 39.805631,1028.495 c 1.048333,0.7193 2.156484,1.3623 3.302089,1.9584 1.141662,0.6242 2.316713,1.2014 3.482574,1.7908 0,0 -2.077067,1.1657 -2.077067,1.1657 l 0,0 c -1.160732,-0.6009 -2.337589,-1.1776 -3.494151,-1.7844 -1.186463,-0.5955 -2.330032,-1.2481 -3.503139,-1.8608 0,0 2.289694,-1.2697 2.289694,-1.2697 z"
       inkscape:connector-curvature="0" />
    <path
       style="fill:#666666;fill-opacity:1;stroke:none"
       id="path6186"
       d="m 28.485796,1034.8677 c -0.296061,0.5073 -0.705273,0.9455 -1.174818,1.3383 0,0 -2.455275,0.8724 -2.455275,0.8724 l 0,0 c 0.453863,-0.3553 0.895698,-0.736 1.136945,-1.2338 0,0 2.493148,-0.9769 2.493148,-0.9769 z"
       inkscape:connector-curvature="0" />
    <path
       style="fill:#666666;fill-opacity:1;stroke:none"
       id="path6188"
       d="m 17.998196,1034.3739 c 0.42857,-0.6912 1.119942,-1.2088 1.807366,-1.701 0,0 2.369626,-0.8248 2.369626,-0.8248 l 0,0 c -0.641447,0.4394 -1.318644,0.9109 -1.696945,1.5541 0,0 -2.480047,0.9717 -2.480047,0.9717 z"
       inkscape:connector-curvature="0" />
    <path
       style="fill:#4d4d4d;fill-rule:evenodd;stroke:none"
       d="m 0,1036.3622 3.2000001,-1.6 31.9999999,16 -3.199999,1.6 z"
       id="path6190"
       inkscape:connector-curvature="0" />
  </g>
</svg>
